# Blender 3.4.0
# www.blender.org
mtllib iglue.mtl
o Cube.001
v -0.101936 -0.304261 0.320230
v -0.118419 0.237917 0.282073
v -0.303030 -0.304261 -0.145296
v -0.286547 0.237917 -0.107140
v 0.303030 -0.304261 0.145296
v 0.286547 0.237917 0.107140
v 0.101936 -0.304261 -0.320230
v 0.118419 0.237917 -0.282073
v -0.101936 -0.217330 0.320230
v -0.101936 -0.130398 0.320230
v -0.101936 -0.043466 0.320230
v -0.101936 0.043466 0.320230
v -0.101936 0.130398 0.320230
v -0.101936 0.183105 0.320230
v -0.303030 0.183105 -0.145296
v -0.303030 0.130398 -0.145296
v -0.303030 0.043466 -0.145296
v -0.303030 -0.043466 -0.145296
v -0.303030 -0.130398 -0.145296
v -0.303030 -0.217330 -0.145296
v 0.101936 0.183105 -0.320230
v 0.101936 0.130398 -0.320230
v 0.101936 0.043466 -0.320230
v 0.101936 -0.043466 -0.320230
v 0.101936 -0.130398 -0.320230
v 0.101936 -0.217330 -0.320230
v 0.303030 0.183105 0.145296
v 0.303030 0.130398 0.145296
v 0.303030 0.043466 0.145296
v 0.303030 -0.043466 0.145296
v 0.303030 -0.130398 0.145296
v 0.303030 -0.217330 0.145296
v -0.262811 -0.304261 -0.052191
v -0.222592 -0.304261 0.040914
v -0.182374 -0.304261 0.134019
v -0.142155 -0.304261 0.227124
v -0.142155 0.274306 0.227124
v -0.182374 0.304261 0.134019
v -0.222592 0.315208 0.040914
v -0.262811 0.285253 -0.052191
v 0.262811 -0.304261 0.052191
v 0.222592 -0.304261 -0.040914
v 0.182374 -0.304261 -0.134019
v 0.142155 -0.304261 -0.227124
v 0.142155 0.285253 -0.227124
v 0.182374 0.315208 -0.134019
v 0.222592 0.315208 -0.040914
v 0.262811 0.285253 0.052191
v 0.142155 -0.217330 -0.227124
v 0.262811 -0.217330 0.052191
v 0.142155 -0.130398 -0.227124
v 0.262811 -0.130398 0.052191
v 0.142155 -0.043466 -0.227124
v 0.262811 -0.043466 0.052191
v 0.142155 0.043466 -0.227124
v 0.262811 0.043466 0.052191
v 0.142155 0.130398 -0.227124
v 0.155616 0.186860 -0.195963
v 0.249350 0.186860 0.021030
v 0.262811 0.130398 0.052191
v 0.142155 0.217330 -0.227124
v 0.182374 0.245272 -0.134019
v 0.222592 0.245272 -0.040914
v 0.262811 0.217330 0.052191
v -0.142155 -0.217330 0.227124
v -0.262811 -0.217330 -0.052191
v -0.142155 -0.130398 0.227124
v -0.262811 -0.130398 -0.052191
v -0.142155 -0.043466 0.227124
v -0.262811 -0.043466 -0.052191
v -0.142155 0.043466 0.227124
v -0.262811 0.043466 -0.052191
v -0.142155 0.130398 0.227124
v -0.155616 0.186860 0.195963
v -0.249350 0.186860 -0.021030
v -0.262811 0.130398 -0.052191
v -0.142155 0.217330 0.227124
v -0.182374 0.245272 0.134019
v -0.222592 0.245272 0.040914
v -0.262811 0.217330 -0.052191
v -0.297840 0.243838 1.214300
v -1.624999 0.243838 1.338879
v -2.153598 0.243838 0.115186
v -1.153139 0.243838 -0.765696
v -0.006208 0.243833 -0.086406
v -1.047154 0.944628 0.363251
v 0.215052 -0.323128 0.244756
v -0.095650 -0.323128 -0.474510
v -0.544421 -0.323128 1.527066
v 0.043639 -0.323128 1.009297
v -1.998658 -0.323128 1.201013
v -1.324508 -0.323128 1.600296
v -2.137947 -0.323128 -0.282795
v -2.309360 -0.323128 0.481746
v -0.769800 -0.323128 -0.873793
v -1.549887 -0.323128 -0.800563
v 0.005136 0.343378 0.599179
v -0.946368 0.343379 1.436944
v -2.037150 0.343377 0.790900
v -1.759801 0.343379 -0.446135
v -0.497594 0.343378 -0.564628
v -0.606722 0.755295 0.863481
v -0.435302 0.755291 0.098950
v -1.386800 0.755294 0.936707
v -1.697501 0.755294 0.217443
v -1.109450 0.755295 -0.300322
v 0.213790 -0.326217 0.243324
v 0.214203 -0.326217 0.246754
v -0.543448 -0.326217 1.525423
v -0.546583 -0.326217 1.526876
v -1.999146 -0.326217 1.198898
v -1.996795 -0.326217 1.201430
v -2.136086 -0.326216 -0.283912
v -2.137768 -0.326216 -0.280894
v -0.771552 -0.326216 -0.873036
v -0.768163 -0.326216 -0.872369
v 0.043724 -0.326217 1.007129
v -1.322419 -0.326217 1.599707
v -2.308154 -0.326217 0.483550
v -1.551230 -0.326216 -0.798859
v -0.097686 -0.326217 -0.475261
v -1.548024 -0.326216 -0.800146
v -2.308387 -0.326217 0.480103
v -1.325770 -0.326217 1.598863
v 0.041886 -0.326217 1.010054
v -0.095471 -0.326217 -0.472610
vn -0.9180 -0.0000 0.3966
vn -0.3160 0.6042 -0.7315
vn 0.9180 -0.0000 -0.3966
vn 0.3160 0.6042 0.7315
vn -0.0000 -1.0000 -0.0000
vn 0.2179 0.8194 0.5301
vn 0.3966 -0.0000 0.9180
vn -0.3966 -0.0000 -0.9180
vn 0.3399 -0.5152 0.7868
vn 0.2595 -0.7561 0.6008
vn -0.3399 -0.5152 -0.7868
vn -0.2595 -0.7561 -0.6008
vn -0.2460 0.7844 -0.5694
vn -0.1123 0.9590 -0.2600
vn 0.0100 0.9985 0.0544
vn 0.0905 0.9588 0.2694
vn 0.9371 -0.3304 -0.1129
vn 0.3968 -0.3303 0.8564
vn -0.6917 -0.3304 0.6421
vn -0.8244 -0.3304 -0.4596
vn 0.1823 -0.3304 -0.9261
vn 0.9680 -0.1256 0.2170
vn 0.0927 -0.1257 0.9877
vn -0.9107 -0.1257 0.3934
vn -0.6556 -0.1257 -0.7446
vn 0.5056 -0.1256 -0.8536
vn 0.6246 0.6617 0.4147
vn -0.2014 0.6617 0.7222
vn -0.7491 0.6617 0.0316
vn -0.2616 0.6617 -0.7027
vn 0.5875 0.6617 -0.4659
vn 0.1688 0.9435 -0.2851
vn 0.3094 0.7947 -0.5223
vn 0.1262 0.6617 -0.7391
vn -0.2189 0.9435 -0.2487
vn -0.4012 0.7947 -0.4556
vn -0.6639 0.6617 -0.3484
vn -0.3041 0.9435 0.1314
vn -0.5573 0.7947 0.2407
vn -0.5365 0.6617 0.5237
vn 0.0310 0.9435 0.3299
vn 0.0567 0.7947 0.6044
vn 0.3323 0.6617 0.6721
vn 0.3233 0.9435 0.0725
vn 0.5924 0.7947 0.1328
vn 0.7419 0.6617 -0.1084
vn 0.6918 0.3304 -0.6421
vn 0.5006 0.1876 -0.8451
vn 0.2306 0.3304 -0.9153
vn -0.3969 0.3304 -0.8564
vn -0.6491 0.1876 -0.7372
vn -0.7992 0.3304 -0.5021
vn -0.9371 0.3304 0.1128
vn -0.9017 0.1876 0.3895
vn -0.7245 0.3304 0.6049
vn -0.1823 0.3304 0.9261
vn 0.0918 0.1876 0.9779
vn 0.3514 0.3304 0.8760
vn 0.8244 0.3304 0.4595
vn 0.9585 0.1876 0.2149
vn 0.9417 0.3304 -0.0636
vn -0.0927 0.1256 -0.9877
vn -0.0918 -0.1876 -0.9779
vn -0.3514 -0.3304 -0.8760
vn -0.9680 0.1256 -0.2170
vn -0.9584 -0.1876 -0.2149
vn -0.9417 -0.3304 0.0635
vn -0.5056 0.1256 0.8536
vn -0.5005 -0.1876 0.8451
vn -0.2306 -0.3304 0.9152
vn 0.6556 0.1256 0.7446
vn 0.6491 -0.1876 0.7372
vn 0.7992 -0.3303 0.5021
vn 0.9107 0.1256 -0.3934
vn 0.9017 -0.1876 -0.3895
vn 0.7245 -0.3304 -0.6049
vt 0.125000 0.750000
vt 0.375000 1.000000
vt 0.375000 0.000000
vt 0.625000 1.000000
vt 0.875000 0.750000
vt 0.625000 0.000000
vt 0.375000 0.250000
vt 0.125000 0.500000
vt 0.625000 0.250000
vt 0.875000 0.500000
vt 0.375000 0.750000
vt 0.625000 0.750000
vt 0.375000 0.500000
vt 0.625000 0.500000
vt 0.410714 1.000000
vt 0.410714 0.000000
vt 0.446429 1.000000
vt 0.446429 0.000000
vt 0.482143 1.000000
vt 0.482143 0.000000
vt 0.517857 1.000000
vt 0.517857 0.000000
vt 0.553571 1.000000
vt 0.553571 0.000000
vt 0.589286 1.000000
vt 0.589286 0.000000
vt 0.589286 0.250000
vt 0.553571 0.250000
vt 0.517857 0.250000
vt 0.482143 0.250000
vt 0.446429 0.250000
vt 0.410714 0.250000
vt 0.589286 0.500000
vt 0.553571 0.500000
vt 0.517857 0.500000
vt 0.482143 0.500000
vt 0.446429 0.500000
vt 0.410714 0.500000
vt 0.589286 0.750000
vt 0.553571 0.750000
vt 0.517857 0.750000
vt 0.482143 0.750000
vt 0.446429 0.750000
vt 0.410714 0.750000
vt 0.375000 0.200000
vt 0.125000 0.550000
vt 0.125000 0.600000
vt 0.125000 0.650000
vt 0.375000 0.050000
vt 0.125000 0.700000
vt 0.875000 0.700000
vt 0.625000 0.050000
vt 0.875000 0.650000
vt 0.625000 0.100000
vt 0.875000 0.600000
vt 0.625000 0.150000
vt 0.875000 0.550000
vt 0.625000 0.200000
vt 0.375000 0.700000
vt 0.375000 0.650000
vt 0.375000 0.600000
vt 0.375000 0.550000
vt 0.625000 0.550000
vt 0.625000 0.600000
vt 0.625000 0.650000
vt 0.625000 0.700000
vt 0.410714 0.550000
vt 0.410714 0.700000
vt 0.446429 0.550000
vt 0.446429 0.700000
vt 0.482143 0.550000
vt 0.482143 0.700000
vt 0.517857 0.550000
vt 0.517857 0.700000
vt 0.553571 0.550000
vt 0.553571 0.600000
vt 0.553571 0.650000
vt 0.553571 0.700000
vt 0.589286 0.550000
vt 0.589286 0.600000
vt 0.589286 0.650000
vt 0.589286 0.700000
vt 0.410714 0.050000
vt 0.410714 0.200000
vt 0.446429 0.050000
vt 0.446429 0.200000
vt 0.482143 0.050000
vt 0.482143 0.200000
vt 0.517857 0.050000
vt 0.517857 0.200000
vt 0.553571 0.050000
vt 0.553571 0.100000
vt 0.553571 0.150000
vt 0.553571 0.200000
vt 0.589286 0.050000
vt 0.589286 0.100000
vt 0.589286 0.150000
vt 0.589286 0.200000
vt 0.181819 0.314921
vt 0.000000 0.314921
vt 0.909091 0.314921
vt 0.727273 0.314921
vt 0.545455 0.314921
vt 0.363637 0.314921
vt 0.454546 0.472382
vt 0.636364 0.472382
vt 0.818182 0.472382
vt 0.090910 0.472382
vt 0.272728 0.472382
vt 0.318182 0.236191
vt 0.409092 0.236191
vt 0.136365 0.236191
vt 0.227273 0.236191
vt 0.863636 0.236191
vt 0.045455 0.236191
vt 0.954545 0.236191
vt 0.681818 0.236191
vt 0.772727 0.236191
vt 0.500000 0.236191
vt 0.590909 0.236191
vt 0.272728 0.314921
vt 0.090910 0.314921
vt 0.818182 0.314921
vt 0.636364 0.314921
vt 0.454546 0.314921
vt 0.136365 0.393651
vt 0.227273 0.393651
vt 0.409092 0.393651
vt 0.318182 0.393651
vt 0.863636 0.393651
vt 0.045455 0.393651
vt 0.681818 0.393651
vt 0.772727 0.393651
vt 0.500000 0.393651
vt 0.590909 0.393651
vt 0.318393 0.235826
vt 0.000000 0.000000
vt 0.317935 0.235762
vt 0.000000 0.000000
vt 0.136575 0.235826
vt 0.000000 0.000000
vt 0.136117 0.235762
vt 0.000000 0.000000
vt 0.863389 0.235762
vt 0.000000 0.000000
vt 0.863847 0.235826
vt 0.000000 0.000000
vt 0.681571 0.235762
vt 0.000000 0.000000
vt 0.682029 0.235826
vt 0.000000 0.000000
vt 0.500211 0.235826
vt 0.000000 0.000000
vt 0.499753 0.235762
vt 0.000000 0.000000
vt 0.227521 0.235762
vt 0.000000 0.000000
vt 0.045703 0.235762
vt 0.954793 0.235762
vt 0.000000 0.000000
vt 0.772975 0.235762
vt 0.000000 0.000000
vt 0.591157 0.235762
vt 0.000000 0.000000
vt 0.409339 0.235762
vt 0.000000 0.000000
vt 0.590699 0.235826
vt 0.000000 0.000000
vt 0.772517 0.235826
vt 0.000000 0.000000
vt 0.954335 0.235826
vt 0.000000 0.000000
vt 0.227063 0.235826
vt 0.000000 0.000000
vt 0.408881 0.235826
vt 0.000000 0.000000
s 0
usemtl snow
f 80/98/1 40/58/1 4/9/1 15/27/1
f 15/27/2 4/9/2 8/14/2 21/33/2
f 64/82/3 48/66/3 6/12/3 27/39/3
f 27/39/4 6/12/4 2/4/4 14/25/4
f 36/50/5 41/59/5 5/11/5 1/1/5
f 48/66/6 37/51/6 2/5/6 6/12/6
f 5/11/7 32/44/7 9/15/7 1/2/7
f 32/44/7 31/43/7 10/17/7 9/15/7
f 31/43/7 30/42/7 11/19/7 10/17/7
f 30/42/7 29/41/7 12/21/7 11/19/7
f 29/41/7 28/40/7 13/23/7 12/21/7
f 28/40/7 27/39/7 14/25/7 13/23/7
f 41/59/3 50/68/3 32/44/3 5/11/3
f 50/68/3 52/70/3 31/43/3 32/44/3
f 52/70/3 54/72/3 30/42/3 31/43/3
f 54/72/3 56/74/3 29/41/3 30/42/3
f 56/74/3 60/78/3 28/40/3 29/41/3
f 60/78/3 64/82/3 27/39/3 28/40/3
f 3/7/8 20/32/8 26/38/8 7/13/8
f 20/32/8 19/31/8 25/37/8 26/38/8
f 19/31/8 18/30/8 24/36/8 25/37/8
f 18/30/8 17/29/8 23/35/8 24/36/8
f 17/29/8 16/28/8 22/34/8 23/35/8
f 16/28/8 15/27/8 21/33/8 22/34/8
f 33/45/1 66/84/1 20/32/1 3/7/1
f 66/84/1 68/86/1 19/31/1 20/32/1
f 68/86/1 70/88/1 18/30/1 19/31/1
f 70/88/1 72/90/1 17/29/1 18/30/1
f 72/90/1 76/94/1 16/28/1 17/29/1
f 76/94/1 80/98/1 15/27/1 16/28/1
f 13/24/1 14/26/1 77/95/1 73/91/1
f 73/91/1 77/95/1 78/96/1 74/92/1
f 75/93/1 79/97/1 80/98/1 76/94/1
f 12/22/1 13/24/1 73/91/1 71/89/1
f 66/84/7 33/45/7 44/62/7 49/67/7
f 49/67/7 51/69/7 68/86/7 66/84/7
f 51/69/7 53/71/7 70/88/7 68/86/7
f 11/20/1 12/22/1 71/89/1 69/87/1
f 53/71/7 55/73/7 72/90/7 70/88/7
f 72/90/7 55/73/7 57/75/7 76/94/7
f 57/75/9 58/76/9 75/93/9 76/94/9
f 10/18/1 11/20/1 69/87/1 67/85/1
f 75/93/10 58/76/10 62/80/10 79/97/10
f 36/49/8 65/83/8 50/68/8 41/59/8
f 50/68/8 65/83/8 67/85/8 52/70/8
f 9/16/1 10/18/1 67/85/1 65/83/1
f 52/70/8 67/85/8 69/87/8 54/72/8
f 69/87/8 71/89/8 56/74/8 54/72/8
f 71/89/8 73/91/8 60/78/8 56/74/8
f 1/3/1 9/16/1 65/83/1 36/49/1
f 59/77/11 60/78/11 73/91/11 74/92/11
f 74/92/12 78/96/12 63/81/12 59/77/12
f 62/80/5 63/81/5 78/96/5 79/97/5
f 22/34/3 21/33/3 61/79/3 57/75/3
f 57/75/3 61/79/3 62/80/3 58/76/3
f 59/77/3 63/81/3 64/82/3 60/78/3
f 23/35/3 22/34/3 57/75/3 55/73/3
f 24/36/3 23/35/3 55/73/3 53/71/3
f 25/37/3 24/36/3 53/71/3 51/69/3
f 26/38/3 25/37/3 51/69/3 49/67/3
f 7/13/3 26/38/3 49/67/3 44/62/3
f 8/14/13 4/10/13 40/57/13 45/63/13
f 45/63/14 40/57/14 39/55/14 46/64/14
f 46/64/15 39/55/15 38/53/15 47/65/15
f 47/65/16 38/53/16 37/51/16 48/66/16
f 3/8/5 7/13/5 44/62/5 33/46/5
f 33/46/5 44/62/5 43/61/5 34/47/5
f 34/47/5 43/61/5 42/60/5 35/48/5
f 35/48/5 42/60/5 41/59/5 36/50/5
f 21/33/3 8/14/3 45/63/3 61/79/3
f 61/79/3 45/63/3 46/64/3 62/80/3
f 62/80/3 46/64/3 47/65/3 63/81/3
f 63/81/3 47/65/3 48/66/3 64/82/3
f 14/26/1 2/6/1 37/52/1 77/95/1
f 77/95/1 37/52/1 38/54/1 78/96/1
f 78/96/1 38/54/1 39/56/1 79/97/1
f 79/97/1 39/56/1 40/58/1 80/98/1
f 107/136/17 87/110/17 108/138/17
f 109/140/18 89/112/18 110/142/18
f 111/144/19 112/146/19 91/114/19
f 113/148/20 114/150/20 93/117/20
f 116/154/21 115/152/21 95/119/21
f 108/138/22 87/110/22 90/113/22 117/156/22
f 110/142/23 89/112/23 92/115/23 118/158/23
f 91/114/24 94/118/24 119/161/24 111/144/24
f 93/117/25 96/120/25 120/163/25 113/148/25
f 116/154/26 95/119/26 88/111/26 121/165/26
f 81/99/27 97/121/27 102/127/27
f 82/100/28 98/122/28 104/131/28
f 83/102/29 99/123/29 105/133/29
f 84/103/30 100/124/30 106/135/30
f 85/104/31 101/125/31 103/128/31
f 103/128/32 106/134/32 86/105/32
f 103/128/33 101/125/33 106/134/33
f 101/125/34 84/103/34 106/134/34
f 106/135/35 105/132/35 86/106/35
f 106/135/36 100/124/36 105/132/36
f 100/124/37 83/102/37 105/132/37
f 105/133/38 104/130/38 86/107/38
f 105/133/39 99/123/39 104/130/39
f 99/123/40 82/101/40 104/130/40
f 104/131/41 102/126/41 86/108/41
f 104/131/42 98/122/42 102/126/42
f 98/122/43 81/99/43 102/126/43
f 102/127/44 103/129/44 86/109/44
f 102/127/45 97/121/45 103/129/45
f 97/121/46 85/104/46 103/129/46
f 88/111/47 101/125/47 85/104/47
f 88/111/48 95/119/48 101/125/48
f 95/119/49 84/103/49 101/125/49
f 96/120/50 100/124/50 84/103/50
f 96/120/51 93/117/51 100/124/51
f 93/117/52 83/102/52 100/124/52
f 94/118/53 99/123/53 83/102/53
f 94/118/54 91/114/54 99/123/54
f 91/114/55 82/101/55 99/123/55
f 92/115/56 98/122/56 82/100/56
f 92/115/57 89/112/57 98/122/57
f 89/112/58 81/99/58 98/122/58
f 90/113/59 97/121/59 81/99/59
f 90/113/60 87/110/60 97/121/60
f 87/110/61 85/104/61 97/121/61
f 95/119/62 96/120/62 84/103/62
f 96/120/63 95/119/63 115/152/63 122/167/63
f 122/167/64 120/163/64 96/120/64
f 93/117/65 94/118/65 83/102/65
f 94/118/66 93/117/66 114/150/66 123/169/66
f 123/169/67 119/161/67 94/118/67
f 91/114/68 92/116/68 82/101/68
f 92/116/69 91/114/69 112/146/69 124/171/69
f 118/159/70 92/116/70 124/171/70
f 89/112/71 90/113/71 81/99/71
f 125/173/72 90/113/72 89/112/72 109/140/72
f 117/156/73 90/113/73 125/173/73
f 87/110/74 88/111/74 85/104/74
f 126/175/75 88/111/75 87/110/75 107/136/75
f 121/165/76 88/111/76 126/175/76
f 109/141/5 110/143/5 118/160/5 124/172/5 112/147/5 111/145/5 119/162/5 123/170/5 114/151/5 113/149/5 120/164/5 122/168/5 115/153/5 116/155/5 121/166/5 126/176/5 107/137/5 108/139/5 117/157/5 125/174/5
o Plane
v 0.165256 0.249542 0.100430
v 0.189769 -0.324536 0.089842
v 0.040280 0.249542 -0.188887
v 0.064792 -0.324536 -0.199476
vn 0.9170 0.0465 -0.3961
vt 0.000000 0.000000
vt 1.000000 0.000000
vt 0.000000 1.000000
vt 1.000000 1.000000
s 0
usemtl black
f 127/177/77 128/178/77 130/180/77 129/179/77
