# Blender 3.4.0
# www.blender.org
mtllib island.mtl
o Plane.001
v -5.418887 0.000000 5.318280
v 9.153720 0.000000 9.350993
v -8.695163 0.000000 -8.772125
v 7.598877 -0.000000 -7.468012
v -8.271234 0.701158 -8.271234
v -3.296157 0.701158 3.351462
v 7.424953 0.701158 7.622227
v 5.870111 0.701158 -5.739245
v -8.271234 0.701158 0.000000
v 8.271234 0.701158 0.000000
v -10.000000 0.000000 0.000000
v 10.000000 0.000000 0.000000
v -0.065071 0.701158 9.204538
v 0.000000 0.701158 -8.271234
v -0.065071 0.000000 10.933305
v 0.000000 0.000000 -10.000000
v 0.000000 0.701158 0.000000
v 8.271234 0.701158 -4.135617
v 10.000000 0.000000 -5.000000
v -8.271234 0.701158 -4.135617
v -10.000000 0.000000 -5.000000
v 0.000000 0.701158 -4.135617
v -5.641208 0.701158 1.701566
v -7.763938 0.000000 2.804003
v 9.857697 0.701158 5.952559
v 11.586464 0.000000 6.816942
v 0.000000 0.701158 4.135617
v -4.135617 0.701158 -8.271234
v -5.000000 0.000000 -10.000000
v -4.135617 0.701158 0.000000
v -1.505591 0.701158 5.837183
v -3.044088 0.000000 7.908069
v -4.135617 0.701158 -4.135617
v -2.316850 0.701158 2.420256
v 5.722080 0.701158 10.088176
v 6.586463 0.000000 11.816942
v 4.135617 0.701158 -8.271234
v 5.000000 0.000000 -10.000000
v 4.135617 0.701158 0.000000
v 4.135617 0.701158 -4.135617
v 4.135617 0.701158 4.135617
vn -0.0000 1.0000 -0.0000
vn -0.5062 0.8584 -0.0835
vn -0.1946 0.9678 0.1597
vn 0.2060 0.9490 0.2385
vn 0.2397 0.9489 -0.2051
vn 0.3758 0.9267 -0.0000
vn -0.2574 0.9255 0.2780
vn -0.0000 0.9267 -0.3758
vn -0.0550 0.9204 0.3871
vn 0.2042 0.9488 -0.2408
vn -0.3758 0.9267 -0.0000
vn -0.1756 0.9644 0.1978
vn 0.3950 0.9134 -0.0981
vn -0.0781 0.8636 -0.4980
vn -0.3116 0.9255 0.2154
vn 0.2382 0.9491 0.2063
vt 0.000000 0.000000
vt 1.000000 0.000000
vt 0.000000 1.000000
vt 1.000000 1.000000
vt 0.048123 0.951876
vt 0.048123 0.048123
vt 0.951876 0.048123
vt 0.951876 0.951876
vt 0.048123 0.500000
vt 0.951876 0.500000
vt 0.000000 0.500000
vt 1.000000 0.500000
vt 0.500000 0.048123
vt 0.500000 0.951876
vt 0.500000 0.000000
vt 0.500000 1.000000
vt 0.500000 0.500000
vt 0.951876 0.725938
vt 1.000000 0.750000
vt 0.048123 0.725938
vt 0.000000 0.750000
vt 0.500000 0.725938
vt 0.048123 0.274062
vt 0.000000 0.250000
vt 0.951876 0.274062
vt 1.000000 0.250000
vt 0.500000 0.274062
vt 0.274062 0.951876
vt 0.250000 1.000000
vt 0.274062 0.500000
vt 0.274062 0.048123
vt 0.250000 0.000000
vt 0.274062 0.725938
vt 0.274062 0.274062
vt 0.725938 0.048123
vt 0.750000 0.000000
vt 0.725938 0.951876
vt 0.750000 1.000000
vt 0.725938 0.500000
vt 0.725938 0.725938
vt 0.725938 0.274062
s 0
f 40/40/1 18/18/1 8/8/1 37/37/1
f 20/20/2 5/5/2 3/3/2 21/21/2
f 31/31/3 6/6/3 1/1/3 32/32/3
f 25/25/4 7/7/4 2/2/4 26/26/4
f 37/37/5 8/8/5 4/4/5 38/38/5
f 18/18/6 10/10/6 12/12/6 19/19/6
f 23/23/7 9/9/7 11/11/7 24/24/7
f 41/41/1 25/25/1 10/10/1 39/39/1
f 34/34/1 27/27/1 17/17/1 30/30/1
f 28/28/8 14/14/8 16/16/8 29/29/8
f 35/35/9 13/13/9 15/15/9 36/36/9
f 33/33/1 22/22/1 14/14/1 28/28/1
f 30/30/1 17/17/1 22/22/1 33/33/1
f 8/8/10 18/18/10 19/19/10 4/4/10
f 9/9/11 20/20/11 21/21/11 11/11/11
f 39/39/1 10/10/1 18/18/1 40/40/1
f 31/31/1 13/13/1 27/27/1 34/34/1
f 35/35/1 7/7/1 25/25/1 41/41/1
f 6/6/12 23/23/12 24/24/12 1/1/12
f 10/10/13 25/25/13 26/26/13 12/12/13
f 6/6/1 31/31/1 34/34/1 23/23/1
f 9/9/1 30/30/1 33/33/1 20/20/1
f 20/20/1 33/33/1 28/28/1 5/5/1
f 5/5/14 28/28/14 29/29/14 3/3/14
f 23/23/1 34/34/1 30/30/1 9/9/1
f 13/13/15 31/31/15 32/32/15 15/15/15
f 13/13/1 35/35/1 41/41/1 27/27/1
f 17/17/1 39/39/1 40/40/1 22/22/1
f 7/7/16 35/35/16 36/36/16 2/2/16
f 27/27/1 41/41/1 39/39/1 17/17/1
f 14/14/8 37/37/8 38/38/8 16/16/8
f 22/22/1 40/40/1 37/37/1 14/14/1
